<mxfile host="app.diagrams.net" agent="Mozilla/5.0 (Windows NT 10.0; Win64; x64) AppleWebKit/537.36 (KHTML, like Gecko) Chrome/135.0.0.0 Safari/537.36" version="26.2.14">
  <diagram name="第 1 页" id="vil0544Z-hyhgMeK1cmY">
    <mxGraphModel dx="552" dy="1562" grid="0" gridSize="10" guides="1" tooltips="1" connect="1" arrows="1" fold="1" page="0" pageScale="1" pageWidth="827" pageHeight="1169" math="0" shadow="0">
      <root>
        <mxCell id="0" />
        <mxCell id="1" parent="0" />
        <mxCell id="wLzkWoWTrugobMrAyd-j-3" style="edgeStyle=none;curved=1;rounded=0;orthogonalLoop=1;jettySize=auto;html=1;fontSize=12;startSize=8;endSize=8;entryX=0.5;entryY=0;entryDx=0;entryDy=0;" edge="1" parent="1" source="wLzkWoWTrugobMrAyd-j-1" target="wLzkWoWTrugobMrAyd-j-6">
          <mxGeometry relative="1" as="geometry">
            <mxPoint x="249" y="-248.58209228515625" as="targetPoint" />
          </mxGeometry>
        </mxCell>
        <mxCell id="wLzkWoWTrugobMrAyd-j-1" value="IDEL" style="ellipse;whiteSpace=wrap;html=1;" vertex="1" parent="1">
          <mxGeometry x="189" y="-352" width="120" height="80" as="geometry" />
        </mxCell>
        <mxCell id="wLzkWoWTrugobMrAyd-j-5" style="edgeStyle=none;curved=1;rounded=0;orthogonalLoop=1;jettySize=auto;html=1;exitX=0.5;exitY=1;exitDx=0;exitDy=0;entryX=0.5;entryY=0;entryDx=0;entryDy=0;fontSize=12;startSize=8;endSize=8;" edge="1" parent="1" source="wLzkWoWTrugobMrAyd-j-2" target="wLzkWoWTrugobMrAyd-j-4">
          <mxGeometry relative="1" as="geometry" />
        </mxCell>
        <mxCell id="wLzkWoWTrugobMrAyd-j-2" value="SORT" style="ellipse;whiteSpace=wrap;html=1;" vertex="1" parent="1">
          <mxGeometry x="189" y="-47" width="120" height="80" as="geometry" />
        </mxCell>
        <mxCell id="wLzkWoWTrugobMrAyd-j-4" value="CHECK_INSIDE" style="ellipse;whiteSpace=wrap;html=1;" vertex="1" parent="1">
          <mxGeometry x="189" y="106" width="120" height="80" as="geometry" />
        </mxCell>
        <mxCell id="wLzkWoWTrugobMrAyd-j-8" style="edgeStyle=none;curved=1;rounded=0;orthogonalLoop=1;jettySize=auto;html=1;entryX=0.5;entryY=0;entryDx=0;entryDy=0;fontSize=12;startSize=8;endSize=8;" edge="1" parent="1" source="wLzkWoWTrugobMrAyd-j-6" target="wLzkWoWTrugobMrAyd-j-2">
          <mxGeometry relative="1" as="geometry" />
        </mxCell>
        <mxCell id="wLzkWoWTrugobMrAyd-j-6" value="DATA_IN" style="ellipse;whiteSpace=wrap;html=1;" vertex="1" parent="1">
          <mxGeometry x="189" y="-199" width="120" height="80" as="geometry" />
        </mxCell>
      </root>
    </mxGraphModel>
  </diagram>
</mxfile>
